# xmcd CD database file generated by Grip 3.3.1
# 
# Track frame offsets:
#       150
#       12692
#       43712
#       61357
#       78602
#       92742
#       104432
#       122517
#       165450
#       180565
#       208287
#       270997
#       278850
#       293785
#       306077
#       315600
# 
# Disc length: 4436 seconds
# 
# Revision: 9
# Processed by: cddbd v1.5.2PL0 Copyright (c) Steve Scherf et al.
# Submitted via: Grip 3.3.1
# 
DISCID=e4115210
DTITLE=Various Artist - Baroque - The Greatest Hits [CD2]
DYEAR=1993
DGENRE=Classical
TTITLE0=Jeremiah Clarke - Trumpet Voluntary - Camerata Romana
TTITLE1=Johann Sebastian Bach - Brandenburg Concerto No. 3, Allegro - Col
TTITLE1=legium Aureum
TTITLE2=Johann Sebastian Bach - Jesu, Joy of Man's Desiring - St Louis Br
TTITLE2=ass Quintet
TTITLE3=George Frideric Handel - Royal Fireworks Music, La Réjouissance,
TTITLE3=Allegro - Bamburg Philharmonic Orchestra 
TTITLE4=George Frideric Handel - Largo from "Xerxes" - London Festival Or
TTITLE4=chestra
TTITLE5=Giovanni Gabrieli - Canzona per Sonare No. 2 - Chicago Chamber Br
TTITLE5=ass
TTITLE6=Antonio Vivaldi - The Four Seasons - Alegro from "The Spring" - C
TTITLE6=amerata Academica of Salzburg
TTITLE7=Johann Sebastian Bach - Orchestral Suite No. 3, Overture - London
TTITLE7=Philharmonic Orchestra
TTITLE8=Johann Sebastian Bach - "Little" Fugue - Chicago Chamber Brass
TTITLE9=Johann Sebastian Bach - Christmas Oratorio - Sinfonia - Stuttgart
TTITLE9=Radio Symphony Orchestra
TTITLE10=Georg Philipp Telemann - Table Music Overture - Camerata Academic
TTITLE10=a of Wurzburg
TTITLE11=Samuel Scheidt - Gailliard Battaglia - St Louis Brass Quintet
TTITLE12=George Frideric Handel - Messiah, Overture - Royal Philharmonic O
TTITLE12=rchestra and Chorus
TTITLE13=George Frideric Handel - Messiah, Comfort Ye - Royal Philharmonic
TTITLE13=Orchestra and Chorus
TTITLE14=George Frideric Handel - Messiah, Glory to God - Royal Philharmon
TTITLE14=ic Orchestra and Chorus
TTITLE15=George Frideric Handel - Messiah, Hallelujah! - Royal Philharmoni
TTITLE15=c Orchestra and Chorus
EXTD=Reference Gold two disc set
EXTT0=
EXTT1=
EXTT2=
EXTT3=
EXTT4=
EXTT5=
EXTT6=
EXTT7=
EXTT8=
EXTT9=
EXTT10=
EXTT11=
EXTT12=
EXTT13=
EXTT14=
EXTT15=
PLAYORDER=
